<?xml version="1.0" encoding="utf-8"?>

<!-- The icon can be used freely in both personal and commercial projects with no attribution required, but always appreciated. 
You may NOT sub-license, resell, rent, redistribute or otherwise transfer the icon without express written permission from iconmonstr.com -->

<!DOCTYPE svg PUBLIC "-//W3C//DTD SVG 1.1//EN" "http://www.w3.org/Graphics/SVG/1.1/DTD/svg11.dtd">
<svg version="1.1" xmlns="http://www.w3.org/2000/svg" xmlns:xlink="http://www.w3.org/1999/xlink" x="0px" y="0px"
	 width="32px" height="32px" viewBox="0 0 512 512" enable-background="new 0 0 512 512" xml:space="preserve">
<path id="key-2-icon" stroke="#000000" stroke-miterlimit="10" d="M286.529,325.486l-45.314,45.314h-43.873l0.002,43.872
	l-45.746-0.001v41.345l-100.004-0.001l150.078-150.076c-4.578-4.686-10.061-11.391-13.691-17.423L50,426.498v-40.939
	l145.736-145.736C212.174,278.996,244.713,310.705,286.529,325.486z M425.646,92.339c48.473,48.473,48.471,127.064-0.002,175.535
	c-48.477,48.476-127.061,48.476-175.537,0.001c-48.473-48.472-48.475-127.062,0-175.537
	C298.58,43.865,377.172,43.865,425.646,92.339z M400.73,117.165c-12.023-12.021-31.516-12.021-43.537,0
	c-12.021,12.022-12.021,31.517,0,43.538s31.514,12.021,43.537-0.001C412.754,148.68,412.75,129.188,400.73,117.165z"/>
</svg>
