<?xml version="1.0" encoding="utf-8"?>

<!-- License Agreement at http://iconmonstr.com/license/ -->

<!DOCTYPE svg PUBLIC "-//W3C//DTD SVG 1.1//EN" "http://www.w3.org/Graphics/SVG/1.1/DTD/svg11.dtd">
<svg version="1.1" xmlns="http://www.w3.org/2000/svg" xmlns:xlink="http://www.w3.org/1999/xlink" x="0px" y="0px"
	 width="32px" height="32px" viewBox="0 0 512 512" style="enable-background:new 0 0 512 512;" xml:space="preserve">
<path id="certificate-15" d="M374.021,384.08c-4.527,29.103-16.648,55.725-36.043,77.92c-1.125-7.912-4.359-15.591-7.428-21.727
	c-7.023,3.705-15.439,5.666-22.799,5.666c-1.559,0-3.102-0.084-4.543-0.268c20.586-21.459,30.746-43.688,33.729-73.294
	c4.828,1.341,10.697,2.046,18.072,2.046C362.119,379.285,364.918,382.319,374.021,384.08z M457.709,445.672
	c-20.553-21.425-30.596-43.755-33.596-73.327c-4.861,1.358-10.73,2.079-18.207,2.079c-7.107,4.895-10.074,7.93-18.994,9.639
	c4.527,29.12,16.648,55.742,36.027,77.938c1.123-7.912,4.359-15.591,7.426-21.727C439.133,444.9,449.795,446.678,457.709,445.672z
	 M372.01,362.789c-12.088-8.482-9.473-7.678-24.426-7.628c-0.018,0-0.018,0-0.033,0c-6.221,0-11.752-3.872-13.631-9.572
	c-4.576-13.68-3.018-11.551-15.088-19.95c-5.18-3.57-7.174-9.907-5.264-15.456c4.695-13.612,4.695-10.997,0-24.677
	c-1.877-5.499,0.033-11.869,5.264-15.457c12.07-8.383,10.496-6.27,15.088-19.958c1.879-5.717,7.41-9.564,13.631-9.564
	c0.016,0,0.016,0,0.033,0c14.938,0.042,12.322,0.888,24.426-7.628c2.514-1.76,5.465-2.649,8.449-2.649s5.934,0.889,8.449,2.649
	c12.086,8.491,9.471,7.678,24.426,7.628c0.016,0,0.016,0,0.016,0c6.236,0,11.77,3.847,13.68,9.564
	c4.561,13.654,2.951,11.542,15.055,19.958c3.822,2.632,5.969,6.822,5.969,11.165c0,1.425-0.234,2.884-0.721,4.292
	c-4.678,13.612-4.678,10.997,0,24.677c1.91,5.432,0,11.835-5.248,15.456c-12.104,8.399-10.494,6.287-15.055,19.95
	c-3.52,10.562-11.266,9.522-20.25,9.522c-7.947,0-7.98,0.721-17.871,7.678C383.879,366.326,377.039,366.326,372.01,362.789z
	 M380.459,331.641c18.676,0,33.797-15.154,33.797-33.797c0-18.676-15.121-33.797-33.797-33.797s-33.797,15.121-33.797,33.797
	C346.662,316.486,361.783,331.641,380.459,331.641z M300.225,354.508c-28.76,18.172-61.131,38.574-67.837,42.799
	c-0.737-13.261-5.649-25.6-14.216-35.792c-0.998-1.257-99.79-127.031-123.981-157.987c-19.044-24.358-1.039-50.352,21.106-50.352
	c29.078,0,40.662,37.887,15.348,54.3l19.967,25.515l138.247-78.122c23.975-17.712,30.73-50.436,15.691-76.119
	C294.156,61.014,274.91,50,254.348,50c-8.155,0-16.068,1.677-23.57,5.013L88.918,127.577C66.58,138.281,54.292,159.27,54.292,181.6
	c0,14.015,4.836,28.55,15.062,41.408c24.786,31.165,124.643,158.859,125.641,160.133c14.794,19.682,0.293,47.259-23.621,47.259
	c-16.974,0-26.019-12.104-28.608-22.447c-3.018-12.104,1.19-24.157,13.269-31.903l-19.58-25.028
	c-14.686,10.327-24.032,26.001-25.876,43.521C106.646,431.857,136.386,462,171.633,462c10.821,0,21.542-2.984,31.014-8.617
	l94.158-59.379C301.33,386.896,305.891,369.461,300.225,354.508z M243.25,84.057c3.487-1.635,7.401-2.49,11.315-2.49
	c9.909,0,18.577,5.23,23.161,14.007c5.801,11.073,4.191,27.3-10.193,35.548l-91.114,51.609c0-20.453-9.975-39.212-26.957-50.67
	L243.25,84.057z M277.35,191.642c5.139,6.32,16.891,20.729,29.613,36.336c5.969-9.019,14.736-15.817,25.062-19.245
	c-11.549-14.166-21.775-26.739-26.805-32.883L277.35,191.642z M227.81,329.729l49.288-27.963l-10.863-14.149l-49.145,28.5
	L227.81,329.729z M259.428,209.772l-86.042,50.52l10.712,13.596l86.288-50.662L259.428,209.772z M281.516,237.182l-86.429,50.905
	l10.713,13.597l86.679-51.048L281.516,237.182z"/>
</svg>
