<svg xmlns="http://www.w3.org/2000/svg" width="24" height="24" viewBox="0 0 24 24"><path d="M19 17c0 1.104-.896 2-2 2h-11c-1.104 0-2-.896-2-2v-11c0-1.104.896-2 2-2h11c1.104 0 2 .896 2 2v11zm-11 3v3h-1v-3h1zm4 0v3h-1v-3h1zm2 0v3h-1v-3h1zm-4 0v3h-1v-3h1zm6 0v3h-1v-3h1zm-8-20v3h-1v-3h1zm4 0v3h-1v-3h1zm2 0v3h-1v-3h1zm-4 0v3h-1v-3h1zm6 0v3h-1v-3h1zm4 15h3v1h-3v-1zm0-4h3v1h-3v-1zm0-2h3v1h-3v-1zm0 4h3v1h-3v-1zm0-6h3v1h-3v-1zm-20 8h3v1h-3v-1zm0-4h3v1h-3v-1zm0-2h3v1h-3v-1zm0 4h3v1h-3v-1zm0-6h3v1h-3v-1z"/></svg>