<?xml version="1.0" encoding="utf-8"?>

<!-- The icon can be used freely in both personal and commercial projects with no attribution required, but always appreciated. 
You may NOT sub-license, resell, rent, redistribute or otherwise transfer the icon without express written permission from iconmonstr.com -->

<!DOCTYPE svg PUBLIC "-//W3C//DTD SVG 1.1//EN" "http://www.w3.org/Graphics/SVG/1.1/DTD/svg11.dtd">
<svg version="1.1" xmlns="http://www.w3.org/2000/svg" xmlns:xlink="http://www.w3.org/1999/xlink" x="0px" y="0px"
	 width="32px" height="32px" viewBox="0 0 512 512" enable-background="new 0 0 512 512" xml:space="preserve">
<path id="compass-7-icon" d="M256,90c91.74,0,166,74.243,166,166c0,91.741-74.245,166-166,166c-91.741,0-166-74.245-166-166
	C90,164.259,164.244,90,256,90 M256,50C142.229,50,50,142.229,50,256s92.229,206,206,206s206-92.229,206-206S369.771,50,256,50z
	 M197.686,216.466l-28.355-47.135l47.225,28.408C209.145,202.733,202.736,209.099,197.686,216.466z M296.709,198.612
	c6.459,4.562,12.119,10.179,16.729,16.602l29.232-45.883L296.709,198.612z M198.312,297.179l-28.982,45.492l45.416-28.936
	C208.398,309.163,202.838,303.563,198.312,297.179z M296.018,314.604l46.652,28.066l-28.117-46.74
	C309.596,303.253,303.299,309.593,296.018,314.604z M400.199,256.001l-99.238,21.998c-4.369,8.913-11.312,16.328-19.859,21.295
	L256,400.2l-25.104-100.908c-8.545-4.965-15.488-12.381-19.857-21.293l-99.238-21.998l99.238-21.999
	c4.369-8.913,11.312-16.328,19.857-21.294L256,111.8l25.104,100.908c8.545,4.966,15.488,12.381,19.857,21.294L400.199,256.001z
	 M278.406,256c0-12.374-10.031-22.407-22.406-22.407S233.592,243.626,233.592,256c0,12.376,10.033,22.408,22.408,22.408
	S278.406,268.376,278.406,256z"/>
</svg>
