<?xml version="1.0" encoding="utf-8"?>

<!-- License Agreement at http://iconmonstr.com/license/ -->

<!DOCTYPE svg PUBLIC "-//W3C//DTD SVG 1.1//EN" "http://www.w3.org/Graphics/SVG/1.1/DTD/svg11.dtd">
<svg version="1.1" xmlns="http://www.w3.org/2000/svg" xmlns:xlink="http://www.w3.org/1999/xlink" x="0px" y="0px"
	 width="512px" height="512px" viewBox="0 0 512 512" enable-background="new 0 0 512 512" xml:space="preserve">
<path id="barcode-4-icon" fill-rule="evenodd" clip-rule="evenodd" d="M117,331.114V181.956h23.215v149.158H117z M162.318,331.114
	V181.956h27.75v149.158H162.318z M211.979,331.114V181.956h13.611v149.16L211.979,331.114z M297.614,331.114V181.956h13.61v149.16
	L297.614,331.114z M247.827,331.114l-0.001-149.158h27.749v149.16L247.827,331.114z M333.566,331.114v-149.16h23.217v149.16H333.566
	z M377.978,331.114v-149.16L395,181.956v149.158H377.978z M165.095,141.45H241v-30h-75.905V141.45z M345.566,111.45H269v30h76.566
	V111.45z M241,400.55v-30h-75.905v30H241z M462,224.863h-30v68h30V224.863z M373.566,141.45H432v55.413h30V111.45h-88.434V141.45z
	 M345.566,370.55H269v30h76.566V370.55z M137.095,370.55H80v-49.687H50v79.687h87.095V370.55z M432,320.863v49.687h-58.434v30H462
	v-79.687H432z M50,292.863h30v-76H50V292.863z M80,188.863V141.45h57.095v-30H50v77.413H80z"/>
</svg>
