<svg xmlns="http://www.w3.org/2000/svg" width="24" height="24" viewBox="0 0 24 24"><path d="M18.625 19.46c-.264 1.696-.97 3.247-2.1 4.54-.065-.461-.254-.908-.433-1.266-.409.216-.899.33-1.328.33l-.265-.016c1.199-1.25 1.791-2.544 1.965-4.27.281.079.623.12 1.053.12.415.284.578.46 1.108.562zm4.875 3.589c-1.197-1.248-1.782-2.549-1.957-4.271-.283.079-.625.122-1.061.122-.414.285-.587.461-1.106.561.264 1.697.97 3.247 2.099 4.54.065-.461.254-.908.433-1.266.51.269 1.131.372 1.592.314zm-4.992-4.829c-.704-.494-.552-.447-1.423-.444h-.002c-.362 0-.685-.225-.794-.557-.267-.797-.176-.673-.879-1.163-.302-.208-.418-.577-.307-.9.273-.793.273-.641 0-1.438-.109-.32.002-.691.307-.9.703-.488.611-.365.879-1.163.109-.333.432-.557.794-.557h.002c.87.002.718.052 1.423-.444.146-.102.318-.154.492-.154s.346.052.492.154c.704.495.552.447 1.423.444h.001c.363 0 .686.224.797.557.266.796.172.673.877 1.163.223.153.348.397.348.65l-.042.25c-.272.793-.272.641 0 1.438.111.317 0 .69-.306.9-.705.489-.611.366-.877 1.163-.205.614-.656.555-1.18.555-.463 0-.465.042-1.041.446-.293.207-.691.207-.984 0zm.492-1.814c1.088 0 1.969-.882 1.969-1.969 0-1.087-.881-1.969-1.969-1.969s-1.969.881-1.969 1.969c0 1.087.881 1.969 1.969 1.969zm-4.674 1.333c-1.675 1.058-3.561 2.247-3.952 2.493-.043-.772-.329-1.492-.828-2.084-.058-.074-5.813-7.4-7.222-9.204-1.109-1.42-.06-2.934 1.23-2.934 1.694 0 2.369 2.207.894 3.163l1.163 1.486 8.053-4.551c1.396-1.032 1.79-2.938.914-4.434-.605-1.032-1.726-1.674-2.924-1.674-.475 0-.936.098-1.373.292l-8.264 4.227c-1.301.624-2.017 1.846-2.017 3.147 0 .816.282 1.663.877 2.412 1.444 1.815 7.261 9.253 7.319 9.328.862 1.147.017 2.753-1.376 2.753-.989 0-1.516-.705-1.667-1.308-.176-.705.069-1.407.773-1.858l-1.141-1.458c-.855.602-1.4 1.515-1.507 2.536-.228 2.174 1.504 3.929 3.557 3.929.63 0 1.255-.174 1.807-.502l5.485-3.458c.264-.415.529-1.431.199-2.301zm-3.319-15.755c.203-.095.431-.145.659-.145.577 0 1.082.305 1.349.816.338.645.244 1.59-.594 2.071l-5.307 3.006c0-1.191-.581-2.284-1.57-2.952l5.463-2.796zm1.987 6.267l1.725 2.117c.348-.525.858-.921 1.46-1.121l-1.562-1.916-1.623.92zm-2.886 8.043l2.871-1.628-.633-.825-2.863 1.661.625.792zm1.842-6.987l-5.012 2.943.624.792 5.026-2.951-.638-.784zm1.286 1.597l-5.035 2.965.624.792 5.049-2.974-.638-.783z"/></svg>