<?xml version="1.0" encoding="utf-8"?>
<!-- The icon can be used freely in both personal and commercial projects with no attribution required, but always appreciated.
You may NOT sub-license, resell, rent, redistribute or otherwise transfer the icon without express written permission from iconmonstr.com -->
<!DOCTYPE svg PUBLIC "-//W3C//DTD SVG 1.1//EN" "http://www.w3.org/Graphics/SVG/1.1/DTD/svg11.dtd">
<svg version="1.1" xmlns="http://www.w3.org/2000/svg" xmlns:xlink="http://www.w3.org/1999/xlink" x="0px" y="0px"
	 width="32px" height="32px" viewBox="0 0 512 512" enable-background="new 0 0 512 512" xml:space="preserve">
<path id="error-4-icon" d="M324.76,90L422,187.24v137.52L324.76,422H187.24L90,324.76V187.24L187.24,90H324.76 M341.328,50H170.672
	L50,170.672v170.656L170.672,462h170.656L462,341.328V170.672L341.328,50L341.328,50z M228.55,135.812h54.9v166.5h-54.9V135.812z
	 M256,388.188c-16.362,0-29.625-13.264-29.625-29.625c0-16.362,13.263-29.627,29.625-29.627c16.361,0,29.625,13.265,29.625,29.627
	C285.625,374.924,272.361,388.188,256,388.188z"/>
</svg>

