<svg xmlns="http://www.w3.org/2000/svg" width="24" height="24" viewBox="0 0 24 24"><path d="M12.014 6.54s2.147-3.969 3.475-6.54l8.511 8.511c-2.583 1.321-6.556 3.459-6.556 3.459l-5.43-5.43zm-8.517 6.423s-1.339 5.254-3.497 8.604l.827.826 3.967-3.967c.348-.348.569-.801.629-1.288.034-.27.153-.532.361-.74.498-.498 1.306-.498 1.803 0 .498.499.498 1.305 0 1.803-.208.209-.469.328-.74.361-.488.061-.94.281-1.288.63l-3.967 3.968.826.84c3.314-2.133 8.604-3.511 8.604-3.511l4.262-7.837-3.951-3.951-7.836 4.262z"/></svg>