<svg xmlns="http://www.w3.org/2000/svg" width="24" height="24" viewBox="0 0 24 24"><path d="M12 2c5.514 0 10 4.486 10 10s-4.486 10-10 10-10-4.486-10-10 4.486-10 10-10zm0-2c-6.627 0-12 5.373-12 12s5.373 12 12 12 12-5.373 12-12-5.373-12-12-12zm1.608 9.476l-1.608-5.476-1.611 5.477c-.429.275-.775.658-1.019 1.107l-5.37 1.416 5.37 1.416c.243.449.589.833 1.019 1.107l1.611 5.477 1.618-5.479c.428-.275.771-.659 1.014-1.109l5.368-1.412-5.368-1.413c-.244-.452-.592-.836-1.024-1.111zm-1.608 4.024c-.828 0-1.5-.672-1.5-1.5s.672-1.5 1.5-1.5 1.5.672 1.5 1.5-.672 1.5-1.5 1.5zm5.25 3.75l-2.573-1.639c.356-.264.67-.579.935-.934l1.638 2.573zm-2.641-8.911l2.64-1.588-1.588 2.639c-.29-.407-.645-.761-1.052-1.051zm-5.215 7.325l-2.644 1.586 1.589-2.641c.29.408.646.764 1.055 1.055zm-1.005-6.34l-1.638-2.573 2.573 1.638c-.357.264-.672.579-.935.935z"/></svg>