<?xml version="1.0" encoding="utf-8"?>

<!-- License Agreement at http://iconmonstr.com/license/ -->

<!DOCTYPE svg PUBLIC "-//W3C//DTD SVG 1.1//EN" "http://www.w3.org/Graphics/SVG/1.1/DTD/svg11.dtd">
<svg version="1.1" xmlns="http://www.w3.org/2000/svg" xmlns:xlink="http://www.w3.org/1999/xlink" x="0px" y="0px"
	 width="512px" height="512px" viewBox="0 0 512 512" enable-background="new 0 0 512 512" xml:space="preserve">
<path id="pen-10-icon" d="M244.558,199.493l67.827,67.826l-73.17,134.531c0,0-90.805,23.4-147.694,60.027l-14.185-14.182
	l68.113-68.105c5.975-5.982,13.726-9.773,22.11-10.807c4.642-0.582,9.128-2.621,12.696-6.205c8.538-8.547,8.546-22.4-0.002-30.951
	c-8.549-8.543-22.407-8.543-30.959-0.002c-3.573,3.572-5.623,8.061-6.199,12.693c-1.028,8.371-4.834,16.15-10.8,22.117
	l-68.104,68.105L50,420.354c37.028-57.496,60.021-147.693,60.021-147.693L244.558,199.493z M315.896,50.122
	c-22.784,44.143-53.014,100-53.014,100l98.872,98.869c0,0,55.909-30.086,100.246-52.766L315.896,50.122z"/>
</svg>
