<?xml version="1.0" encoding="utf-8"?>


<!-- The icon can be used freely in both personal and commercial projects with no attribution required, but always appreciated. 
You may NOT sub-license, resell, rent, redistribute or otherwise transfer the icon without express written permission from iconmonstr.com -->


<!DOCTYPE svg PUBLIC "-//W3C//DTD SVG 1.1//EN" "http://www.w3.org/Graphics/SVG/1.1/DTD/svg11.dtd">

<svg version="1.1" xmlns="http://www.w3.org/2000/svg" xmlns:xlink="http://www.w3.org/1999/xlink" x="0px" y="0px"

	 width="32px" height="32px" viewBox="0 0 512 512" enable-background="new 0 0 512 512" xml:space="preserve">

<path id="tag-2-icon" d="M234.508,50L50.068,50.262l-0.004,184.311L277.365,462l184.57-184.57L234.508,50z M114.877,167.365

	c-15.027-15.027-15.027-39.395,0-54.424c15.029-15.029,39.396-15.029,54.426,0s15.029,39.396,0,54.424

	C154.273,182.395,129.906,182.395,114.877,167.365z M242.316,327.94l-76.225-76.226l17.678-17.678l76.225,76.226L242.316,327.94z

	 M317.609,335.887L199.764,218.041l17.678-17.678l117.846,117.846L317.609,335.887z M351.818,301.678L233.973,183.832l17.678-17.678

	L369.496,284L351.818,301.678z"/>

</svg>

